<svg xmlns="http://www.w3.org/2000/svg" viewBox="0 0 781.82 129.77"><defs><style>.cls-1{fill:#f7941d;}.cls-2{fill:#696a6d;}</style></defs><g id="Layer_2" data-name="Layer 2"><g id="Layer_1-2" data-name="Layer 1"><path class="cls-1" d="M12.83,122.35A67.8,67.8,0,0,0,43.24,130c12.6,0,19.28-5.23,19.28-13.22,0-7.45-5.79-11.84-20.31-17C22,92.62,8.74,81.59,8.74,63.87c0-20.69,17.37-36.41,45.89-36.41,13.83,0,23.82,2.74,31,6.1l-6.06,22A58.22,58.22,0,0,0,54.22,49.8c-11.94,0-17.64,5.53-17.64,11.73,0,7.71,6.72,11.11,22.45,17.06,21.48,8,31.43,19.17,31.43,36.32,0,20.26-15.51,37.64-48.91,37.64-13.75,0-27.5-3.74-34.26-7.54Z" transform="translate(-7.29 -22.87)"/><path class="cls-2" d="M130.51,115.42c.82,11.36,12.05,16.76,24.83,16.76a73.31,73.31,0,0,0,24.24-3.73l3.7,18.53c-9.11,3.72-20.11,5.57-31.92,5.57-29.84,0-47-17.38-47-44.83,0-22.39,14-47.14,44.41-47.14,28.55,0,39.33,22.19,39.33,44a52.17,52.17,0,0,1-1,10.85Zm32.16-18.76c0-6.6-2.9-17.86-15.36-17.86-11.58,0-16.26,10.57-17,17.86Z" transform="translate(-7.29 -22.87)"/><path class="cls-2" d="M204.45,90.7c0-11-.34-20.24-.72-28.14h23.75l1.27,12.21h.57c3.56-5.68,12.52-14.19,27.23-14.19,18,0,31.53,12,31.53,37.93v52.15H260.65V101.83c0-11.35-4-19.12-13.93-19.12-7.53,0-12,5.28-13.89,10.35a19.63,19.63,0,0,0-1,6.77v50.83H204.45Z" transform="translate(-7.29 -22.87)"/><path class="cls-2" d="M339.39,37.44V62.56h19.72v20.2H339.39v31.92c0,10.63,2.64,15.53,10.81,15.53a36.31,36.31,0,0,0,8.14-.82l.22,20.81c-3.53,1.27-10.07,2.35-17.74,2.35-8.86,0-16.24-3.08-20.65-7.64-5.08-5.22-7.57-13.6-7.57-26.11v-36H300.9V62.56h11.7V43.63Z" transform="translate(-7.29 -22.87)"/><path class="cls-2" d="M403.11,38.11c0,7.62-5.6,13.68-14.72,13.68-8.68,0-14.29-6.06-14.26-13.68,0-7.83,5.71-13.72,14.5-13.72S403,30.25,403.11,38.11Zm-28.2,112.55V62.56h27.42v88.1Z" transform="translate(-7.29 -22.87)"/><path class="cls-2" d="M424.22,90.7c0-11-.34-20.24-.72-28.14h23.76l1.27,12.21h.57c3.55-5.68,12.52-14.19,27.23-14.19,18,0,31.53,12,31.53,37.93v52.15H480.43V101.83c0-11.35-4.05-19.12-13.93-19.12-7.54,0-12,5.28-13.89,10.35a19.61,19.61,0,0,0-1,6.77v50.83H424.22Z" transform="translate(-7.29 -22.87)"/><path class="cls-2" d="M550.81,115.42c.82,11.36,12.05,16.76,24.83,16.76a73.4,73.4,0,0,0,24.24-3.73l3.7,18.53c-9.12,3.72-20.11,5.57-31.92,5.57-29.84,0-47-17.38-47-44.83,0-22.39,14-47.14,44.4-47.14,28.55,0,39.34,22.19,39.34,44a52.88,52.88,0,0,1-1,10.85ZM583,96.66c0-6.6-2.9-17.86-15.36-17.86-11.57,0-16.26,10.57-17,17.86Z" transform="translate(-7.29 -22.87)"/><path class="cls-2" d="M624.74,22.87h27.43V150.66H624.74Z" transform="translate(-7.29 -22.87)"/><path class="cls-1" d="M712.09,123.87c4.77,2.57,16.08,7.13,27.22,7.13,14.18,0,21.41-6.81,21.38-15.55-.06-11.6-11.51-16.84-23.59-16.87H726V78.94h10.68c9.17,0,20.73-3.58,20.73-13.44,0-7-5.67-12.24-17.21-12.24-9.62,0-19.66,4.13-24.41,7l-5.62-19.72c7.07-4.55,21-8.86,36.19-8.86,25,0,38.83,13.13,38.83,29.2,0,12.29-7.06,22.11-21.38,27.13v.36c14,2.53,25.35,13.11,25.35,28.5,0,20.66-18.22,35.76-47.85,35.76-15.18,0-27.94-3.9-34.72-8.19Z" transform="translate(-7.29 -22.87)"/></g></g></svg>